<?xml version="1.0" encoding="utf-8"?>
<svg version="1.1" id="Layer_1" xmlns="http://www.w3.org/2000/svg" xmlns:xlink="http://www.w3.org/1999/xlink" x="0px" y="0px"
	 viewBox="0 0 1869.088 1643.136" enable-background="new 0 0 1869.088 1643.136" xml:space="preserve">
<g>
	<path marker-end="none" marker-start="none" fill="#DE0000" d="M1343.103,1251.966c-17.97-186.704-75.21-144.34-64.254,0v280.533
		c0,33.349-27.068,60.417-60.417,60.417H955.159c-33.349,0-60.417-27.068-60.417-60.417v-264.322
		c-2.384-10.116-9.398-14.547-18.668-16.211H426.117c-10.324,3.258-16.701,11.373-14.762,29.671l-2.156,0.068v250.793
		c0,33.349-27.07,60.417-60.417,60.417H85.506c-33.347,0-60.417-27.068-60.417-60.417V794.477c0-28.587,23.203-51.79,51.792-51.79
		h1454.448c28.589,0,51.792,23.203,51.792,51.79v297.902l0.321-0.104l-4.315,295.637c3.779,45.811,70.958,73.865,92.791-4.315
		l-2.159-79.843c-7.687-29.35-0.69-48.741,43.16-43.16l90.635-2.159c13.867-0.04,27.783-3.493,41.001,43.16
		C1834.885,1768.435,1355.436,1700.821,1343.103,1251.966z"/>
	<path fill="#1504BD" d="M810.576,21.934C397.459,28.901-45.063,137.18,33.716,604.578c-6.613,55.768,10.301,80.799,38.842,90.634
		l1467.403,8.633c24.889-7.937,45.632-28.688,47.475-107.899C1582.175,92.005,1197.83,15.402,810.576,21.934z M501.649,607.948
		l-102.144-74.212l-102.144,74.212l39.015-120.077l-102.144-74.212H360.49l39.015-120.077l39.015,120.077h126.256l-102.144,74.212
		L501.649,607.948z M908.128,607.948l-102.144-74.212l-102.144,74.212l39.015-120.077l-102.144-74.212h126.256l39.015-120.077
		L845,413.659h126.256l-102.144,74.212L908.128,607.948z M1314.608,607.948l-102.144-74.212l-102.144,74.212l39.015-120.077
		l-102.144-74.212h126.256l39.015-120.077l39.015,120.077h126.256l-102.144,74.212L1314.608,607.948z"/>
</g>
</svg>
