<?xml version="1.0" encoding="UTF-8"?>
<!DOCTYPE svg PUBLIC "-//W3C//DTD SVG 1.1//EN" "http://www.w3.org/Graphics/SVG/1.1/DTD/svg11.dtd">
<svg xmlns="http://www.w3.org/2000/svg" version="1.1" width="2905px" height="2892px" style="shape-rendering:geometricPrecision; text-rendering:geometricPrecision; image-rendering:optimizeQuality; fill-rule:evenodd; clip-rule:evenodd" xmlns:xlink="http://www.w3.org/1999/xlink">
<g><path style="opacity:1" fill="#fefefe" d="M -0.5,-0.5 C 69.5,-0.5 139.5,-0.5 209.5,-0.5C 213.919,44.6031 229.086,85.6031 255,122.5C 263.364,130.53 271.364,138.863 279,147.5C 282.402,152.431 283.569,157.764 282.5,163.5C 271.083,156.249 260.083,148.416 249.5,140C 224.13,116.962 198.464,94.2948 172.5,72C 159.682,62.4217 146.348,53.5884 132.5,45.5C 129.437,68.5596 132.937,90.5596 143,111.5C 154.957,134.423 169.624,155.423 187,174.5C 208.785,197.279 229.452,220.945 249,245.5C 250.874,247.569 251.874,249.902 252,252.5C 235.915,243.878 220.415,234.378 205.5,224C 178.662,203.498 150.996,184.165 122.5,166C 106.411,155.917 89.0779,149.083 70.5,145.5C 70.9056,167.884 77.0722,188.55 89,207.5C 101.146,225.908 115.312,242.741 131.5,258C 158.911,282.749 186.911,306.749 215.5,330C 225.651,338.984 235.318,348.484 244.5,358.5C 243.635,359.583 242.635,359.749 241.5,359C 205.674,339.921 170.007,320.588 134.5,301C 110.976,288.737 86.6425,278.404 61.5,270C 51.3853,266.744 41.052,264.577 30.5,263.5C 29.3012,278.705 32.8012,292.705 41,305.5C 52.6667,322.5 67,336.833 84,348.5C 87.5519,355.382 91.8852,361.716 97,367.5C 104.914,375.418 113.414,382.585 122.5,389C 139.999,400.25 157.665,411.25 175.5,422C 186.111,428.945 196.444,436.278 206.5,444C 200.182,447.717 193.515,448.384 186.5,446C 143.844,430.672 100.177,419.006 55.5,411C 36.8213,408.022 18.1546,407.856 -0.5,410.5C -0.5,273.5 -0.5,136.5 -0.5,-0.5 Z"/></g>
<g><path style="opacity:1" fill="#de1f26" d="M 209.5,-0.5 C 210.167,-0.5 210.833,-0.5 211.5,-0.5C 248.709,20.7454 281.875,47.4121 311,79.5C 332.667,103.167 354.333,126.833 376,150.5C 387.867,162.035 400.033,173.202 412.5,184C 413.483,184.591 414.15,184.257 414.5,183C 407.358,163.549 399.524,144.382 391,125.5C 383.006,107.21 380.34,88.2096 383,68.5C 383.543,66.3686 384.376,64.3686 385.5,62.5C 428.373,100.867 467.539,142.534 503,187.5C 544.299,241.417 582.632,297.417 618,355.5C 637.831,389.167 658.165,422.5 679,455.5C 688.956,473.7 697.956,492.367 706,511.5C 718.427,533.915 732.427,555.249 748,575.5C 775.297,608.106 801.63,641.439 827,675.5C 844.37,697.563 859.37,721.23 872,746.5C 881.588,772.847 890.255,799.513 898,826.5C 908.151,854.803 920.484,882.136 935,908.5C 965.304,963.449 1000.3,1015.12 1040,1063.5C 1059.67,1086.17 1079.33,1108.83 1099,1131.5C 1119.64,1155.16 1143.47,1174.66 1170.5,1190C 1193.59,1201.52 1217.92,1209.19 1243.5,1213C 1263.42,1216.66 1283.42,1218.82 1303.5,1219.5C 1309.41,1213.09 1316.08,1207.59 1323.5,1203C 1327.87,1198.97 1331.87,1194.63 1335.5,1190C 1351.35,1185.72 1366.68,1180.05 1381.5,1173C 1410.52,1157.16 1439.85,1141.82 1469.5,1127C 1488.74,1117.81 1508.91,1111.64 1530,1108.5C 1532.8,1108.54 1535.3,1109.38 1537.5,1111C 1365.1,1249.4 1206.93,1402.9 1063,1571.5C 1000.85,1646.16 941.85,1723.16 886,1802.5C 830.752,1884.66 775.752,1966.99 721,2049.5C 692.909,2093.34 666.076,2138 640.5,2183.5C 631.177,2170.85 619.511,2161.01 605.5,2154C 597.533,2146.61 594.2,2137.44 595.5,2126.5C 596.5,2115.84 597,2105.17 597,2094.5C 596.535,2093.07 595.701,2091.9 594.5,2091C 560.506,2073.17 552.839,2047.34 571.5,2013.5C 564.875,2006.37 558.042,1999.37 551,1992.5C 537.9,1975.48 536.067,1957.31 545.5,1938C 543.167,1935.67 540.833,1933.33 538.5,1931C 530.333,1926.17 522.167,1921.33 514,1916.5C 507.757,1889.83 516.59,1869.99 540.5,1857C 551.378,1851.39 562.378,1846.06 573.5,1841C 626.514,1819.49 678.514,1795.83 729.5,1770C 742.907,1761.6 756.574,1753.6 770.5,1746C 782.824,1742.92 794.824,1738.92 806.5,1734C 813.934,1726.7 816.768,1717.86 815,1707.5C 808.856,1701.88 804.189,1695.22 801,1687.5C 798.212,1675.22 794.545,1663.22 790,1651.5C 783.748,1640.96 774.581,1636.79 762.5,1639C 756.637,1641.4 750.637,1643.4 744.5,1645C 739.597,1645.94 734.93,1645.27 730.5,1643C 721.169,1635.34 713.669,1626.17 708,1615.5C 700.686,1603.59 690.186,1598.93 676.5,1601.5C 675.522,1601.02 674.689,1600.36 674,1599.5C 667.335,1587.5 660.168,1575.83 652.5,1564.5C 628.617,1566.06 611.617,1556.06 601.5,1534.5C 598.503,1533.52 595.503,1533.69 592.5,1535C 585.833,1538.67 579.167,1542.33 572.5,1546C 559.987,1546.99 550.82,1541.82 545,1530.5C 540.821,1521.61 538.155,1512.28 537,1502.5C 535.652,1490.17 535.152,1477.84 535.5,1465.5C 529.089,1461.59 524.256,1456.26 521,1449.5C 517.999,1438.15 514.999,1426.82 512,1415.5C 511.626,1414.58 511.126,1413.75 510.5,1413C 487.875,1414.59 473.375,1404.43 467,1382.5C 465.726,1375.9 465.226,1369.23 465.5,1362.5C 442.844,1363.25 427.677,1352.92 420,1331.5C 418.268,1324.21 416.768,1316.88 415.5,1309.5C 388.513,1297.21 376.846,1276.21 380.5,1246.5C 356.502,1241.66 343.002,1227 340,1202.5C 339.678,1191.11 339.511,1179.78 339.5,1168.5C 330.737,1174.43 322.404,1180.93 314.5,1188C 295.47,1194.9 283.304,1188.4 278,1168.5C 274.854,1148.89 278.854,1130.89 290,1114.5C 291.315,1108.8 289.982,1103.8 286,1099.5C 280,1094.17 274,1088.83 268,1083.5C 266.664,1074.16 266.998,1064.83 269,1055.5C 271.606,1043.91 274.44,1032.41 277.5,1021C 258.238,1020.04 244.738,1010.87 237,993.5C 235.059,986.16 235.059,978.826 237,971.5C 239.123,966.925 240.956,962.258 242.5,957.5C 238.576,944.82 232.91,932.986 225.5,922C 208.965,916.325 195.132,906.825 184,893.5C 173.241,876.32 172.741,858.82 182.5,841C 170.446,839.97 159.779,835.636 150.5,828C 135.315,813.809 123.982,796.976 116.5,777.5C 122.743,764.177 131.076,752.344 141.5,742C 145.167,739.5 148.833,737 152.5,734.5C 119.055,717.191 100.388,689.691 96.5,652C 98.3589,647.113 100.859,642.613 104,638.5C 108.982,634.685 113.482,630.352 117.5,625.5C 90.1703,616.316 67.0036,600.982 48,579.5C 41.831,572.163 37.4977,563.83 35,554.5C 32.442,541.143 37.2753,531.643 49.5,526C 54.6035,524.795 59.7701,523.961 65,523.5C 78.8985,524.866 92.7319,526.7 106.5,529C 111.167,529.667 115.833,529.667 120.5,529C 102.339,516.419 84.0059,504.086 65.5,492C 45.3277,478.483 27.4943,462.317 12,443.5C 6.69323,434.895 2.52656,425.895 -0.5,416.5C -0.5,414.5 -0.5,412.5 -0.5,410.5C 18.1546,407.856 36.8213,408.022 55.5,411C 100.177,419.006 143.844,430.672 186.5,446C 193.515,448.384 200.182,447.717 206.5,444C 196.444,436.278 186.111,428.945 175.5,422C 157.665,411.25 139.999,400.25 122.5,389C 113.414,382.585 104.914,375.418 97,367.5C 91.8852,361.716 87.5519,355.382 84,348.5C 67,336.833 52.6667,322.5 41,305.5C 32.8012,292.705 29.3012,278.705 30.5,263.5C 41.052,264.577 51.3853,266.744 61.5,270C 86.6425,278.404 110.976,288.737 134.5,301C 170.007,320.588 205.674,339.921 241.5,359C 242.635,359.749 243.635,359.583 244.5,358.5C 235.318,348.484 225.651,338.984 215.5,330C 186.911,306.749 158.911,282.749 131.5,258C 115.312,242.741 101.146,225.908 89,207.5C 77.0722,188.55 70.9056,167.884 70.5,145.5C 89.0779,149.083 106.411,155.917 122.5,166C 150.996,184.165 178.662,203.498 205.5,224C 220.415,234.378 235.915,243.878 252,252.5C 251.874,249.902 250.874,247.569 249,245.5C 229.452,220.945 208.785,197.279 187,174.5C 169.624,155.423 154.957,134.423 143,111.5C 132.937,90.5596 129.437,68.5596 132.5,45.5C 146.348,53.5884 159.682,62.4217 172.5,72C 198.464,94.2948 224.13,116.962 249.5,140C 260.083,148.416 271.083,156.249 282.5,163.5C 283.569,157.764 282.402,152.431 279,147.5C 271.364,138.863 263.364,130.53 255,122.5C 229.086,85.6031 213.919,44.6031 209.5,-0.5 Z"/></g>
<g><path style="opacity:1" fill="#fefefe" d="M 211.5,-0.5 C 1109.17,-0.5 2006.83,-0.5 2904.5,-0.5C 2904.5,894.833 2904.5,1790.17 2904.5,2685.5C 2885.92,2660.74 2865.26,2637.57 2842.5,2616C 2806.76,2583.59 2770.43,2551.92 2733.5,2521C 2726.26,2514.43 2719.76,2507.26 2714,2499.5C 2712.29,2495.92 2710.46,2492.42 2708.5,2489C 2709.17,2488.83 2709.83,2488.67 2710.5,2488.5C 2730.42,2495.96 2749.76,2504.79 2768.5,2515C 2777.18,2519.17 2786.18,2522.51 2795.5,2525C 2804.95,2527.28 2814.28,2526.95 2823.5,2524C 2824.91,2523.63 2825.91,2522.8 2826.5,2521.5C 2815.52,2504.68 2802.18,2489.84 2786.5,2477C 2760.06,2456.56 2733.06,2436.89 2705.5,2418C 2695.43,2410.64 2685.76,2402.8 2676.5,2394.5C 2693.92,2393.03 2711.25,2390.86 2728.5,2388C 2735.19,2387.3 2740.19,2384.13 2743.5,2378.5C 2714.87,2351.02 2683.53,2327.19 2649.5,2307C 2564.72,2258.53 2480.72,2208.86 2397.5,2158C 2378.97,2147.24 2359.97,2137.24 2340.5,2128C 2311.38,2116.11 2283.38,2102.11 2256.5,2086C 2245.83,2078 2235.17,2070 2224.5,2062C 2192.46,2034.29 2160.13,2006.96 2127.5,1980C 2087.78,1950.61 2047.78,1921.61 2007.5,1893C 1996.27,1886.22 1984.61,1880.22 1972.5,1875C 1949.98,1866.61 1927.32,1858.61 1904.5,1851C 1868.48,1836.66 1833.81,1819.66 1800.5,1800C 1714.93,1749.47 1637.76,1687.97 1569,1615.5C 1547.96,1592.8 1527.3,1569.8 1507,1546.5C 1495.57,1531.64 1487.91,1514.97 1484,1496.5C 1478.87,1477.47 1476.87,1458.14 1478,1438.5C 1479.26,1432.06 1480.92,1425.73 1483,1419.5C 1492.28,1398.62 1501.28,1377.62 1510,1356.5C 1514.31,1341.92 1518.31,1327.25 1522,1312.5C 1525.28,1303.28 1529.61,1294.61 1535,1286.5C 1561.32,1252.51 1590.82,1221.34 1623.5,1193C 1641.17,1180.67 1658.83,1168.33 1676.5,1156C 1682,1150.5 1687.5,1145 1693,1139.5C 1694.93,1136.97 1696.27,1134.3 1697,1131.5C 1683.21,1118.9 1666.87,1112.56 1648,1112.5C 1629.06,1114.49 1610.22,1117.33 1591.5,1121C 1371.93,1293.24 1176.43,1489.41 1005,1709.5C 967.108,1759.62 930.441,1810.62 895,1862.5C 833.593,1952.3 773.926,2043.3 716,2135.5C 700.828,2160.51 686.162,2185.84 672,2211.5C 670.086,2214.3 669.086,2217.3 669,2220.5C 679.844,2231.84 693.011,2236.01 708.5,2233C 716.034,2253.97 731.034,2265.63 753.5,2268C 761.63,2268.72 769.63,2268.38 777.5,2267C 783.028,2273.23 788.194,2279.73 793,2286.5C 796.788,2291.15 801.622,2292.65 807.5,2291C 815.867,2289.49 824.2,2287.82 832.5,2286C 834.833,2285.33 837.167,2285.33 839.5,2286C 844.684,2292.52 851.017,2297.52 858.5,2301C 867.05,2303.28 875.384,2302.62 883.5,2299C 891.87,2294.48 900.204,2289.98 908.5,2285.5C 913.561,2286.78 917.728,2289.45 921,2293.5C 924.053,2300.44 928.219,2306.61 933.5,2312C 940.983,2312.84 947.649,2310.84 953.5,2306C 967.628,2293.18 977.795,2277.68 984,2259.5C 997.196,2220.72 1008.53,2181.38 1018,2141.5C 1030.26,2097.72 1043.93,2054.38 1059,2011.5C 1063.23,2001.38 1067.73,1991.38 1072.5,1981.5C 1081.98,1980.05 1089.81,1983.05 1096,1990.5C 1100.24,1999.81 1106.07,2007.98 1113.5,2015C 1120.76,2018.88 1127.59,2023.38 1134,2028.5C 1134.86,2030.09 1135.53,2031.75 1136,2033.5C 1136.84,2040.54 1137.84,2047.54 1139,2054.5C 1147.69,2059.19 1155.86,2064.69 1163.5,2071C 1165.91,2072.71 1168.58,2073.54 1171.5,2073.5C 1173.97,2089.37 1178.3,2104.7 1184.5,2119.5C 1197.48,2121.67 1207.31,2128.33 1214,2139.5C 1218.76,2150.79 1224.1,2161.79 1230,2172.5C 1232.2,2175.04 1234.7,2177.21 1237.5,2179C 1245.34,2182.72 1253.34,2186.06 1261.5,2189C 1267.81,2192.07 1273.31,2196.24 1278,2201.5C 1284.01,2212.17 1291.51,2221.67 1300.5,2230C 1306.6,2233.87 1313.26,2236.03 1320.5,2236.5C 1331.54,2265.71 1352.04,2284.71 1382,2293.5C 1382.32,2303.63 1386.48,2311.8 1394.5,2318C 1407.55,2325.35 1421.22,2331.35 1435.5,2336C 1440,2338.42 1444.33,2341.08 1448.5,2344C 1453.91,2351.98 1458.41,2360.48 1462,2369.5C 1468.76,2378.14 1477.59,2383.64 1488.5,2386C 1497.25,2387.69 1505.92,2389.69 1514.5,2392C 1517.56,2405.39 1524.9,2415.72 1536.5,2423C 1551.48,2431.38 1567.48,2436.88 1584.5,2439.5C 1589.33,2452.5 1597.66,2462.66 1609.5,2470C 1624.53,2479.18 1640.87,2484.35 1658.5,2485.5C 1657.66,2494.16 1657.16,2502.83 1657,2511.5C 1657.97,2513.64 1659.47,2515.31 1661.5,2516.5C 1665.38,2515.56 1669.05,2514.06 1672.5,2512C 1678.51,2505.91 1685.68,2502.08 1694,2500.5C 1695.5,2500.67 1697,2500.83 1698.5,2501C 1699.43,2501.39 1700.09,2502.05 1700.5,2503C 1695.1,2511.07 1688.94,2518.57 1682,2525.5C 1679.22,2529.24 1677.38,2533.4 1676.5,2538C 1676.44,2539.71 1677.11,2541.04 1678.5,2542C 1687.66,2547.08 1696.66,2552.41 1705.5,2558C 1731.09,2556.54 1753.09,2546.87 1771.5,2529C 1776.68,2522.99 1782.01,2517.16 1787.5,2511.5C 1789.34,2541.48 1803.67,2562.98 1830.5,2576C 1845.62,2581.71 1859.96,2580.21 1873.5,2571.5C 1887.23,2592.75 1903.23,2612.25 1921.5,2630C 1934.7,2641.85 1950.2,2648.35 1968,2649.5C 1971.85,2648.35 1975.68,2648.35 1979.5,2649.5C 1993.45,2679.28 2015.45,2700.78 2045.5,2714C 2064.47,2718.85 2079.14,2713.01 2089.5,2696.5C 2105.69,2715.54 2124.69,2731.04 2146.5,2743C 2157.13,2748.79 2168.47,2751.13 2180.5,2750C 2182.17,2749 2183.83,2748 2185.5,2747C 2189.83,2742 2194.17,2737 2198.5,2732C 2200.85,2729.63 2203.52,2729.13 2206.5,2730.5C 2221.43,2761.27 2242.43,2787.1 2269.5,2808C 2284.49,2818.88 2301.15,2825.22 2319.5,2827C 2326.48,2819.37 2330.15,2810.37 2330.5,2800C 2329.29,2788.77 2327.62,2777.6 2325.5,2766.5C 2325.68,2763.12 2326.18,2759.78 2327,2756.5C 2327.52,2753.75 2328.68,2751.42 2330.5,2749.5C 2339.85,2758.02 2348.68,2767.02 2357,2776.5C 2371.86,2795.53 2387.19,2814.2 2403,2832.5C 2416.39,2847.91 2431.56,2861.07 2448.5,2872C 2464.48,2882.05 2481.81,2886.22 2500.5,2884.5C 2501.74,2871.02 2500.58,2857.68 2497,2844.5C 2487.47,2815.56 2478.13,2786.56 2469,2757.5C 2466.8,2748.56 2465.97,2739.56 2466.5,2730.5C 2510.69,2779.85 2557.69,2826.35 2607.5,2870C 2619.42,2878.3 2632.42,2880.8 2646.5,2877.5C 2643.72,2859.01 2638.22,2841.34 2630,2824.5C 2623.92,2812.01 2617.59,2799.68 2611,2787.5C 2590.54,2754.93 2571.88,2721.26 2555,2686.5C 2554.31,2684.28 2553.47,2682.11 2552.5,2680C 2552.83,2679.5 2553.17,2679 2553.5,2678.5C 2568.09,2690.58 2581.92,2703.58 2595,2717.5C 2618.46,2743.96 2642.96,2769.46 2668.5,2794C 2686.66,2810.26 2707,2823.26 2729.5,2833C 2740.38,2836.83 2751.38,2837.33 2762.5,2834.5C 2763.63,2832.93 2763.8,2831.26 2763,2829.5C 2755.67,2809.84 2746,2791.5 2734,2774.5C 2714.39,2748.29 2694.06,2722.62 2673,2697.5C 2664.4,2686.64 2657.07,2674.98 2651,2662.5C 2649.07,2658.94 2648.57,2655.27 2649.5,2651.5C 2677.94,2673.77 2705.94,2696.6 2733.5,2720C 2751.82,2734.64 2771.49,2747.3 2792.5,2758C 2806.43,2764.82 2821.09,2769.15 2836.5,2771C 2843.67,2771.96 2850.67,2771.62 2857.5,2770C 2849.72,2752.26 2839.56,2736.1 2827,2721.5C 2818.17,2712 2809.33,2702.5 2800.5,2693C 2778.36,2672.53 2756.53,2651.7 2735,2630.5C 2723.71,2618.57 2713.38,2605.9 2704,2592.5C 2703.52,2591.55 2703.35,2590.55 2703.5,2589.5C 2706.94,2591.05 2710.27,2592.89 2713.5,2595C 2745.78,2620.14 2779.11,2643.81 2813.5,2666C 2831.23,2676.69 2850.23,2684.02 2870.5,2688C 2881.93,2688.96 2893.26,2688.46 2904.5,2686.5C 2904.5,2754.83 2904.5,2823.17 2904.5,2891.5C 1936.17,2891.5 967.833,2891.5 -0.5,2891.5C -0.5,2066.5 -0.5,1241.5 -0.5,416.5C 2.52656,425.895 6.69323,434.895 12,443.5C 27.4943,462.317 45.3277,478.483 65.5,492C 84.0059,504.086 102.339,516.419 120.5,529C 115.833,529.667 111.167,529.667 106.5,529C 92.7319,526.7 78.8985,524.866 65,523.5C 59.7701,523.961 54.6035,524.795 49.5,526C 37.2753,531.643 32.442,541.143 35,554.5C 37.4977,563.83 41.831,572.163 48,579.5C 67.0036,600.982 90.1703,616.316 117.5,625.5C 113.482,630.352 108.982,634.685 104,638.5C 100.859,642.613 98.3589,647.113 96.5,652C 100.388,689.691 119.055,717.191 152.5,734.5C 148.833,737 145.167,739.5 141.5,742C 131.076,752.344 122.743,764.177 116.5,777.5C 123.982,796.976 135.315,813.809 150.5,828C 159.779,835.636 170.446,839.97 182.5,841C 172.741,858.82 173.241,876.32 184,893.5C 195.132,906.825 208.965,916.325 225.5,922C 232.91,932.986 238.576,944.82 242.5,957.5C 240.956,962.258 239.123,966.925 237,971.5C 235.059,978.826 235.059,986.16 237,993.5C 244.738,1010.87 258.238,1020.04 277.5,1021C 274.44,1032.41 271.606,1043.91 269,1055.5C 266.998,1064.83 266.664,1074.16 268,1083.5C 274,1088.83 280,1094.17 286,1099.5C 289.982,1103.8 291.315,1108.8 290,1114.5C 278.854,1130.89 274.854,1148.89 278,1168.5C 283.304,1188.4 295.47,1194.9 314.5,1188C 322.404,1180.93 330.737,1174.43 339.5,1168.5C 339.511,1179.78 339.678,1191.11 340,1202.5C 343.002,1227 356.502,1241.66 380.5,1246.5C 376.846,1276.21 388.513,1297.21 415.5,1309.5C 416.768,1316.88 418.268,1324.21 420,1331.5C 427.677,1352.92 442.844,1363.25 465.5,1362.5C 465.226,1369.23 465.726,1375.9 467,1382.5C 473.375,1404.43 487.875,1414.59 510.5,1413C 511.126,1413.75 511.626,1414.58 512,1415.5C 514.999,1426.82 517.999,1438.15 521,1449.5C 524.256,1456.26 529.089,1461.59 535.5,1465.5C 535.152,1477.84 535.652,1490.17 537,1502.5C 538.155,1512.28 540.821,1521.61 545,1530.5C 550.82,1541.82 559.987,1546.99 572.5,1546C 579.167,1542.33 585.833,1538.67 592.5,1535C 595.503,1533.69 598.503,1533.52 601.5,1534.5C 611.617,1556.06 628.617,1566.06 652.5,1564.5C 660.168,1575.83 667.335,1587.5 674,1599.5C 674.689,1600.36 675.522,1601.02 676.5,1601.5C 690.186,1598.93 700.686,1603.59 708,1615.5C 713.669,1626.17 721.169,1635.34 730.5,1643C 734.93,1645.27 739.597,1645.94 744.5,1645C 750.637,1643.4 756.637,1641.4 762.5,1639C 774.581,1636.79 783.748,1640.96 790,1651.5C 794.545,1663.22 798.212,1675.22 801,1687.5C 804.189,1695.22 808.856,1701.88 815,1707.5C 816.768,1717.86 813.934,1726.7 806.5,1734C 794.824,1738.92 782.824,1742.92 770.5,1746C 756.574,1753.6 742.907,1761.6 729.5,1770C 678.514,1795.83 626.514,1819.49 573.5,1841C 562.378,1846.06 551.378,1851.39 540.5,1857C 516.59,1869.99 507.757,1889.83 514,1916.5C 522.167,1921.33 530.333,1926.17 538.5,1931C 540.833,1933.33 543.167,1935.67 545.5,1938C 536.067,1957.31 537.9,1975.48 551,1992.5C 558.042,1999.37 564.875,2006.37 571.5,2013.5C 552.839,2047.34 560.506,2073.17 594.5,2091C 595.701,2091.9 596.535,2093.07 597,2094.5C 597,2105.17 596.5,2115.84 595.5,2126.5C 594.2,2137.44 597.533,2146.61 605.5,2154C 619.511,2161.01 631.177,2170.85 640.5,2183.5C 666.076,2138 692.909,2093.34 721,2049.5C 775.752,1966.99 830.752,1884.66 886,1802.5C 941.85,1723.16 1000.85,1646.16 1063,1571.5C 1206.93,1402.9 1365.1,1249.4 1537.5,1111C 1535.3,1109.38 1532.8,1108.54 1530,1108.5C 1508.91,1111.64 1488.74,1117.81 1469.5,1127C 1439.85,1141.82 1410.52,1157.16 1381.5,1173C 1366.68,1180.05 1351.35,1185.72 1335.5,1190C 1331.87,1194.63 1327.87,1198.97 1323.5,1203C 1316.08,1207.59 1309.41,1213.09 1303.5,1219.5C 1283.42,1218.82 1263.42,1216.66 1243.5,1213C 1217.92,1209.19 1193.59,1201.52 1170.5,1190C 1143.47,1174.66 1119.64,1155.16 1099,1131.5C 1079.33,1108.83 1059.67,1086.17 1040,1063.5C 1000.3,1015.12 965.304,963.449 935,908.5C 920.484,882.136 908.151,854.803 898,826.5C 890.255,799.513 881.588,772.847 872,746.5C 859.37,721.23 844.37,697.563 827,675.5C 801.63,641.439 775.297,608.106 748,575.5C 732.427,555.249 718.427,533.915 706,511.5C 697.956,492.367 688.956,473.7 679,455.5C 658.165,422.5 637.831,389.167 618,355.5C 582.632,297.417 544.299,241.417 503,187.5C 467.539,142.534 428.373,100.867 385.5,62.5C 384.376,64.3686 383.543,66.3686 383,68.5C 380.34,88.2096 383.006,107.21 391,125.5C 399.524,144.382 407.358,163.549 414.5,183C 414.15,184.257 413.483,184.591 412.5,184C 400.033,173.202 387.867,162.035 376,150.5C 354.333,126.833 332.667,103.167 311,79.5C 281.875,47.4121 248.709,20.7454 211.5,-0.5 Z"/></g>
<g><path style="opacity:1" fill="#253c8e" d="M 2904.5,2685.5 C 2904.5,2685.83 2904.5,2686.17 2904.5,2686.5C 2893.26,2688.46 2881.93,2688.96 2870.5,2688C 2850.23,2684.02 2831.23,2676.69 2813.5,2666C 2779.11,2643.81 2745.78,2620.14 2713.5,2595C 2710.27,2592.89 2706.94,2591.05 2703.5,2589.5C 2703.35,2590.55 2703.52,2591.55 2704,2592.5C 2713.38,2605.9 2723.71,2618.57 2735,2630.5C 2756.53,2651.7 2778.36,2672.53 2800.5,2693C 2809.33,2702.5 2818.17,2712 2827,2721.5C 2839.56,2736.1 2849.72,2752.26 2857.5,2770C 2850.67,2771.62 2843.67,2771.96 2836.5,2771C 2821.09,2769.15 2806.43,2764.82 2792.5,2758C 2771.49,2747.3 2751.82,2734.64 2733.5,2720C 2705.94,2696.6 2677.94,2673.77 2649.5,2651.5C 2648.57,2655.27 2649.07,2658.94 2651,2662.5C 2657.07,2674.98 2664.4,2686.64 2673,2697.5C 2694.06,2722.62 2714.39,2748.29 2734,2774.5C 2746,2791.5 2755.67,2809.84 2763,2829.5C 2763.8,2831.26 2763.63,2832.93 2762.5,2834.5C 2751.38,2837.33 2740.38,2836.83 2729.5,2833C 2707,2823.26 2686.66,2810.26 2668.5,2794C 2642.96,2769.46 2618.46,2743.96 2595,2717.5C 2581.92,2703.58 2568.09,2690.58 2553.5,2678.5C 2553.17,2679 2552.83,2679.5 2552.5,2680C 2553.47,2682.11 2554.31,2684.28 2555,2686.5C 2571.88,2721.26 2590.54,2754.93 2611,2787.5C 2617.59,2799.68 2623.92,2812.01 2630,2824.5C 2638.22,2841.34 2643.72,2859.01 2646.5,2877.5C 2632.42,2880.8 2619.42,2878.3 2607.5,2870C 2557.69,2826.35 2510.69,2779.85 2466.5,2730.5C 2465.97,2739.56 2466.8,2748.56 2469,2757.5C 2478.13,2786.56 2487.47,2815.56 2497,2844.5C 2500.58,2857.68 2501.74,2871.02 2500.5,2884.5C 2481.81,2886.22 2464.48,2882.05 2448.5,2872C 2431.56,2861.07 2416.39,2847.91 2403,2832.5C 2387.19,2814.2 2371.86,2795.53 2357,2776.5C 2348.68,2767.02 2339.85,2758.02 2330.5,2749.5C 2328.68,2751.42 2327.52,2753.75 2327,2756.5C 2326.18,2759.78 2325.68,2763.12 2325.5,2766.5C 2327.62,2777.6 2329.29,2788.77 2330.5,2800C 2330.15,2810.37 2326.48,2819.37 2319.5,2827C 2301.15,2825.22 2284.49,2818.88 2269.5,2808C 2242.43,2787.1 2221.43,2761.27 2206.5,2730.5C 2203.52,2729.13 2200.85,2729.63 2198.5,2732C 2194.17,2737 2189.83,2742 2185.5,2747C 2183.83,2748 2182.17,2749 2180.5,2750C 2168.47,2751.13 2157.13,2748.79 2146.5,2743C 2124.69,2731.04 2105.69,2715.54 2089.5,2696.5C 2079.14,2713.01 2064.47,2718.85 2045.5,2714C 2015.45,2700.78 1993.45,2679.28 1979.5,2649.5C 1975.68,2648.35 1971.85,2648.35 1968,2649.5C 1950.2,2648.35 1934.7,2641.85 1921.5,2630C 1903.23,2612.25 1887.23,2592.75 1873.5,2571.5C 1859.96,2580.21 1845.62,2581.71 1830.5,2576C 1803.67,2562.98 1789.34,2541.48 1787.5,2511.5C 1782.01,2517.16 1776.68,2522.99 1771.5,2529C 1753.09,2546.87 1731.09,2556.54 1705.5,2558C 1696.66,2552.41 1687.66,2547.08 1678.5,2542C 1677.11,2541.04 1676.44,2539.71 1676.5,2538C 1677.38,2533.4 1679.22,2529.24 1682,2525.5C 1688.94,2518.57 1695.1,2511.07 1700.5,2503C 1700.09,2502.05 1699.43,2501.39 1698.5,2501C 1697,2500.83 1695.5,2500.67 1694,2500.5C 1685.68,2502.08 1678.51,2505.91 1672.5,2512C 1669.05,2514.06 1665.38,2515.56 1661.5,2516.5C 1659.47,2515.31 1657.97,2513.64 1657,2511.5C 1657.16,2502.83 1657.66,2494.16 1658.5,2485.5C 1640.87,2484.35 1624.53,2479.18 1609.5,2470C 1597.66,2462.66 1589.33,2452.5 1584.5,2439.5C 1567.48,2436.88 1551.48,2431.38 1536.5,2423C 1524.9,2415.72 1517.56,2405.39 1514.5,2392C 1505.92,2389.69 1497.25,2387.69 1488.5,2386C 1477.59,2383.64 1468.76,2378.14 1462,2369.5C 1458.41,2360.48 1453.91,2351.98 1448.5,2344C 1444.33,2341.08 1440,2338.42 1435.5,2336C 1421.22,2331.35 1407.55,2325.35 1394.5,2318C 1386.48,2311.8 1382.32,2303.63 1382,2293.5C 1352.04,2284.71 1331.54,2265.71 1320.5,2236.5C 1313.26,2236.03 1306.6,2233.87 1300.5,2230C 1291.51,2221.67 1284.01,2212.17 1278,2201.5C 1273.31,2196.24 1267.81,2192.07 1261.5,2189C 1253.34,2186.06 1245.34,2182.72 1237.5,2179C 1234.7,2177.21 1232.2,2175.04 1230,2172.5C 1224.1,2161.79 1218.76,2150.79 1214,2139.5C 1207.31,2128.33 1197.48,2121.67 1184.5,2119.5C 1178.3,2104.7 1173.97,2089.37 1171.5,2073.5C 1168.58,2073.54 1165.91,2072.71 1163.5,2071C 1155.86,2064.69 1147.69,2059.19 1139,2054.5C 1137.84,2047.54 1136.84,2040.54 1136,2033.5C 1135.53,2031.75 1134.86,2030.09 1134,2028.5C 1127.59,2023.38 1120.76,2018.88 1113.5,2015C 1106.07,2007.98 1100.24,1999.81 1096,1990.5C 1089.81,1983.05 1081.98,1980.05 1072.5,1981.5C 1067.73,1991.38 1063.23,2001.38 1059,2011.5C 1043.93,2054.38 1030.26,2097.72 1018,2141.5C 1008.53,2181.38 997.196,2220.72 984,2259.5C 977.795,2277.68 967.628,2293.18 953.5,2306C 947.649,2310.84 940.983,2312.84 933.5,2312C 928.219,2306.61 924.053,2300.44 921,2293.5C 917.728,2289.45 913.561,2286.78 908.5,2285.5C 900.204,2289.98 891.87,2294.48 883.5,2299C 875.384,2302.62 867.05,2303.28 858.5,2301C 851.017,2297.52 844.684,2292.52 839.5,2286C 837.167,2285.33 834.833,2285.33 832.5,2286C 824.2,2287.82 815.867,2289.49 807.5,2291C 801.622,2292.65 796.788,2291.15 793,2286.5C 788.194,2279.73 783.028,2273.23 777.5,2267C 769.63,2268.38 761.63,2268.72 753.5,2268C 731.034,2265.63 716.034,2253.97 708.5,2233C 693.011,2236.01 679.844,2231.84 669,2220.5C 669.086,2217.3 670.086,2214.3 672,2211.5C 686.162,2185.84 700.828,2160.51 716,2135.5C 773.926,2043.3 833.593,1952.3 895,1862.5C 930.441,1810.62 967.108,1759.62 1005,1709.5C 1176.43,1489.41 1371.93,1293.24 1591.5,1121C 1610.22,1117.33 1629.06,1114.49 1648,1112.5C 1666.87,1112.56 1683.21,1118.9 1697,1131.5C 1696.27,1134.3 1694.93,1136.97 1693,1139.5C 1687.5,1145 1682,1150.5 1676.5,1156C 1658.83,1168.33 1641.17,1180.67 1623.5,1193C 1590.82,1221.34 1561.32,1252.51 1535,1286.5C 1529.61,1294.61 1525.28,1303.28 1522,1312.5C 1518.31,1327.25 1514.31,1341.92 1510,1356.5C 1501.28,1377.62 1492.28,1398.62 1483,1419.5C 1480.92,1425.73 1479.26,1432.06 1478,1438.5C 1476.87,1458.14 1478.87,1477.47 1484,1496.5C 1487.91,1514.97 1495.57,1531.64 1507,1546.5C 1527.3,1569.8 1547.96,1592.8 1569,1615.5C 1637.76,1687.97 1714.93,1749.47 1800.5,1800C 1833.81,1819.66 1868.48,1836.66 1904.5,1851C 1927.32,1858.61 1949.98,1866.61 1972.5,1875C 1984.61,1880.22 1996.27,1886.22 2007.5,1893C 2047.78,1921.61 2087.78,1950.61 2127.5,1980C 2160.13,2006.96 2192.46,2034.29 2224.5,2062C 2235.17,2070 2245.83,2078 2256.5,2086C 2283.38,2102.11 2311.38,2116.11 2340.5,2128C 2359.97,2137.24 2378.97,2147.24 2397.5,2158C 2480.72,2208.86 2564.72,2258.53 2649.5,2307C 2683.53,2327.19 2714.87,2351.02 2743.5,2378.5C 2740.19,2384.13 2735.19,2387.3 2728.5,2388C 2711.25,2390.86 2693.92,2393.03 2676.5,2394.5C 2685.76,2402.8 2695.43,2410.64 2705.5,2418C 2733.06,2436.89 2760.06,2456.56 2786.5,2477C 2802.18,2489.84 2815.52,2504.68 2826.5,2521.5C 2825.91,2522.8 2824.91,2523.63 2823.5,2524C 2814.28,2526.95 2804.95,2527.28 2795.5,2525C 2786.18,2522.51 2777.18,2519.17 2768.5,2515C 2749.76,2504.79 2730.42,2495.96 2710.5,2488.5C 2709.83,2488.67 2709.17,2488.83 2708.5,2489C 2710.46,2492.42 2712.29,2495.92 2714,2499.5C 2719.76,2507.26 2726.26,2514.43 2733.5,2521C 2770.43,2551.92 2806.76,2583.59 2842.5,2616C 2865.26,2637.57 2885.92,2660.74 2904.5,2685.5 Z"/></g>
</svg>
