<?xml version="1.0" encoding="UTF-8"?>
<svg xmlns="http://www.w3.org/2000/svg" xmlns:xlink="http://www.w3.org/1999/xlink" width="2324pt" height="2313.600098pt" viewBox="0 0 2324 2313.600098" version="1.1">
<g id="surface1">
<path style=" stroke:none;fill-rule:nonzero;fill:rgb(100%,100%,100%);fill-opacity:1;" d="M -0.398438 -0.398438 L 167.601562 -0.398438 C 171.136719 35.683594 183.269531 68.484375 204 98 C 210.691406 104.425781 217.089844 111.089844 223.199219 118 C 225.921875 121.945312 226.855469 126.210938 226 130.800781 C 216.867188 125 208.066406 118.734375 199.601562 112 C 179.304688 93.570312 158.769531 75.4375 138 57.601562 C 127.746094 49.9375 117.078125 42.871094 106 36.398438 C 103.550781 54.847656 106.347656 72.449219 114.398438 89.199219 C 123.964844 107.539062 135.699219 124.339844 149.601562 139.601562 C 167.027344 157.824219 183.5625 176.757812 199.199219 196.398438 C 200.699219 198.054688 201.5 199.921875 201.601562 202 C 188.730469 195.101562 176.332031 187.503906 164.398438 179.199219 C 142.929688 162.796875 120.796875 147.332031 98 132.800781 C 85.128906 124.734375 71.261719 119.265625 56.398438 116.398438 C 56.722656 134.308594 61.65625 150.839844 71.199219 166 C 80.917969 180.726562 92.25 194.191406 105.199219 206.398438 C 127.128906 226.199219 149.527344 245.398438 172.398438 264 C 180.519531 271.1875 188.253906 278.789062 195.601562 286.800781 C 194.90625 287.667969 194.109375 287.800781 193.199219 287.199219 C 164.539062 271.9375 136.003906 256.46875 107.601562 240.800781 C 88.78125 230.988281 69.3125 222.722656 49.199219 216 C 41.109375 213.394531 32.839844 211.660156 24.398438 210.800781 C 23.441406 222.964844 26.242188 234.164062 32.800781 244.398438 C 42.132812 258 53.601562 269.464844 67.199219 278.800781 C 70.042969 284.304688 73.507812 289.371094 77.601562 294 C 83.929688 300.335938 90.730469 306.066406 98 311.199219 C 112 320.199219 126.132812 329 140.398438 337.601562 C 148.890625 343.15625 157.15625 349.023438 165.199219 355.199219 C 160.144531 358.171875 154.8125 358.707031 149.199219 356.800781 C 115.074219 344.539062 80.140625 335.203125 44.398438 328.800781 C 29.457031 326.417969 14.523438 326.285156 -0.398438 328.398438 Z M -0.398438 -0.398438 "/>
<path style=" stroke:none;fill-rule:nonzero;fill:rgb(35%,35%,35%);fill-opacity:1;" d="M 167.601562 -0.398438 L 169.199219 -0.398438 C 198.96875 16.597656 225.5 37.929688 248.800781 63.601562 C 266.132812 82.535156 283.464844 101.464844 300.800781 120.398438 C 310.292969 129.628906 320.027344 138.5625 330 147.199219 C 330.785156 147.671875 331.320312 147.40625 331.601562 146.398438 C 325.886719 130.839844 319.621094 115.503906 312.800781 100.398438 C 306.40625 85.769531 304.273438 70.566406 306.398438 54.800781 C 306.835938 53.09375 307.5 51.496094 308.398438 50 C 342.699219 80.695312 374.03125 114.027344 402.398438 150 C 435.4375 193.132812 466.105469 237.933594 494.398438 284.398438 C 510.265625 311.332031 526.53125 338 543.199219 364.398438 C 551.164062 378.960938 558.363281 393.894531 564.800781 409.199219 C 574.742188 427.132812 585.941406 444.199219 598.398438 460.398438 C 620.238281 486.484375 641.304688 513.152344 661.601562 540.398438 C 675.496094 558.050781 687.496094 576.984375 697.601562 597.199219 C 705.269531 618.277344 712.203125 639.609375 718.398438 661.199219 C 726.519531 683.84375 736.386719 705.707031 748 726.800781 C 772.242188 770.757812 800.238281 812.097656 832 850.800781 C 847.734375 868.9375 863.464844 887.0625 879.199219 905.199219 C 895.710938 924.128906 914.777344 939.726562 936.398438 952 C 954.871094 961.214844 974.335938 967.351562 994.800781 970.398438 C 1010.734375 973.328125 1026.734375 975.054688 1042.800781 975.601562 C 1047.527344 970.472656 1052.863281 966.070312 1058.800781 962.398438 C 1062.296875 959.175781 1065.496094 955.703125 1068.398438 952 C 1081.078125 948.574219 1093.34375 944.039062 1105.199219 938.398438 C 1128.414062 925.726562 1151.878906 913.457031 1175.601562 901.601562 C 1190.992188 894.246094 1207.128906 889.3125 1224 886.800781 C 1226.238281 886.832031 1228.238281 887.503906 1230 888.800781 C 1092.078125 999.519531 965.542969 1122.320312 850.398438 1257.199219 C 800.679688 1316.929688 753.480469 1378.527344 708.800781 1442 C 664.601562 1507.726562 620.601562 1573.59375 576.800781 1639.601562 C 554.328125 1674.671875 532.859375 1710.398438 512.398438 1746.800781 C 504.941406 1736.679688 495.609375 1728.808594 484.398438 1723.199219 C 478.027344 1717.289062 475.359375 1709.953125 476.398438 1701.199219 C 477.199219 1692.671875 477.601562 1684.136719 477.601562 1675.601562 C 477.226562 1674.457031 476.5625 1673.519531 475.601562 1672.800781 C 448.40625 1658.535156 442.269531 1637.871094 457.199219 1610.800781 C 451.898438 1605.097656 446.433594 1599.496094 440.800781 1594 C 430.320312 1580.382812 428.855469 1565.847656 436.398438 1550.398438 C 434.535156 1548.535156 432.667969 1546.664062 430.800781 1544.800781 C 424.265625 1540.9375 417.734375 1537.0625 411.199219 1533.199219 C 406.207031 1511.863281 413.273438 1495.992188 432.398438 1485.601562 C 441.101562 1481.113281 449.902344 1476.847656 458.800781 1472.800781 C 501.210938 1455.59375 542.8125 1436.664062 583.601562 1416 C 594.324219 1409.28125 605.257812 1402.878906 616.398438 1396.800781 C 626.257812 1394.335938 635.859375 1391.136719 645.199219 1387.199219 C 651.148438 1381.359375 653.414062 1374.289062 652 1366 C 647.085938 1361.503906 643.351562 1356.175781 640.800781 1350 C 638.570312 1340.175781 635.636719 1330.574219 632 1321.199219 C 627 1312.769531 619.664062 1309.433594 610 1311.199219 C 605.308594 1313.121094 600.507812 1314.71875 595.601562 1316 C 591.675781 1316.753906 587.945312 1316.214844 584.398438 1314.398438 C 576.933594 1308.273438 570.933594 1300.9375 566.398438 1292.398438 C 560.546875 1282.871094 552.148438 1279.144531 541.199219 1281.199219 C 540.417969 1280.816406 539.75 1280.289062 539.199219 1279.601562 C 533.867188 1270 528.132812 1260.664062 522 1251.601562 C 502.894531 1252.847656 489.292969 1244.847656 481.199219 1227.601562 C 478.800781 1226.816406 476.402344 1226.953125 474 1228 C 468.667969 1230.9375 463.332031 1233.863281 458 1236.800781 C 447.988281 1237.59375 440.65625 1233.457031 436 1224.398438 C 432.65625 1217.289062 430.523438 1209.824219 429.601562 1202 C 428.523438 1192.136719 428.121094 1182.273438 428.398438 1172.398438 C 423.269531 1169.273438 419.40625 1165.007812 416.800781 1159.601562 C 414.398438 1150.519531 412 1141.457031 409.601562 1132.398438 C 409.300781 1131.664062 408.902344 1131 408.398438 1130.398438 C 390.300781 1131.671875 378.699219 1123.542969 373.601562 1106 C 372.582031 1100.71875 372.179688 1095.382812 372.398438 1090 C 354.273438 1090.601562 342.140625 1082.335938 336 1065.199219 C 334.613281 1059.367188 333.414062 1053.503906 332.398438 1047.601562 C 310.808594 1037.769531 301.476562 1020.96875 304.398438 997.199219 C 285.203125 993.328125 274.402344 981.601562 272 962 C 271.742188 952.886719 271.609375 943.824219 271.601562 934.800781 C 264.589844 939.542969 257.921875 944.742188 251.601562 950.398438 C 236.375 955.921875 226.644531 950.71875 222.398438 934.800781 C 219.882812 919.113281 223.082031 904.710938 232 891.601562 C 233.050781 887.039062 231.984375 883.039062 228.800781 879.601562 C 224 875.335938 219.199219 871.0625 214.398438 866.800781 C 213.332031 859.328125 213.597656 851.863281 215.199219 844.398438 C 217.285156 835.128906 219.550781 825.929688 222 816.800781 C 206.589844 816.03125 195.789062 808.695312 189.601562 794.800781 C 188.046875 788.929688 188.046875 783.0625 189.601562 777.199219 C 191.296875 773.539062 192.765625 769.804688 194 766 C 190.859375 755.855469 186.328125 746.390625 180.398438 737.601562 C 167.171875 733.058594 156.105469 725.460938 147.199219 714.800781 C 138.59375 701.054688 138.191406 687.054688 146 672.800781 C 136.355469 671.976562 127.824219 668.507812 120.398438 662.398438 C 108.253906 651.046875 99.1875 637.582031 93.199219 622 C 98.195312 611.339844 104.859375 601.875 113.199219 593.601562 C 116.132812 591.601562 119.066406 589.601562 122 587.601562 C 95.242188 573.753906 80.308594 551.753906 77.199219 521.601562 C 78.6875 517.691406 80.6875 514.089844 83.199219 510.800781 C 87.1875 507.746094 90.785156 504.28125 94 500.398438 C 72.136719 493.054688 53.601562 480.785156 38.398438 463.601562 C 33.464844 457.730469 30 451.0625 28 443.601562 C 25.953125 432.914062 29.820312 425.3125 39.601562 420.800781 C 43.683594 419.835938 47.816406 419.167969 52 418.800781 C 63.117188 419.894531 74.183594 421.359375 85.199219 423.199219 C 88.933594 423.734375 92.667969 423.734375 96.398438 423.199219 C 81.871094 413.136719 67.203125 403.269531 52.398438 393.601562 C 36.261719 382.785156 21.996094 369.855469 9.601562 354.800781 C 5.355469 347.914062 2.019531 340.714844 -0.398438 333.199219 L -0.398438 328.398438 C 14.523438 326.285156 29.457031 326.417969 44.398438 328.800781 C 80.140625 335.203125 115.074219 344.539062 149.199219 356.800781 C 154.8125 358.707031 160.144531 358.171875 165.199219 355.199219 C 157.15625 349.023438 148.890625 343.15625 140.398438 337.601562 C 126.132812 329 112 320.199219 98 311.199219 C 90.730469 306.066406 83.929688 300.335938 77.601562 294 C 73.507812 289.371094 70.042969 284.304688 67.199219 278.800781 C 53.601562 269.464844 42.132812 258 32.800781 244.398438 C 26.242188 234.164062 23.441406 222.964844 24.398438 210.800781 C 32.839844 211.660156 41.109375 213.394531 49.199219 216 C 69.3125 222.722656 88.78125 230.988281 107.601562 240.800781 C 136.003906 256.46875 164.539062 271.9375 193.199219 287.199219 C 194.109375 287.800781 194.90625 287.667969 195.601562 286.800781 C 188.253906 278.789062 180.519531 271.1875 172.398438 264 C 149.527344 245.398438 127.128906 226.199219 105.199219 206.398438 C 92.25 194.191406 80.917969 180.726562 71.199219 166 C 61.65625 150.839844 56.722656 134.308594 56.398438 116.398438 C 71.261719 119.265625 85.128906 124.734375 98 132.800781 C 120.796875 147.332031 142.929688 162.796875 164.398438 179.199219 C 176.332031 187.503906 188.730469 195.101562 201.601562 202 C 201.5 199.921875 200.699219 198.054688 199.199219 196.398438 C 183.5625 176.757812 167.027344 157.824219 149.601562 139.601562 C 135.699219 124.339844 123.964844 107.539062 114.398438 89.199219 C 106.347656 72.449219 103.550781 54.847656 106 36.398438 C 117.078125 42.871094 127.746094 49.9375 138 57.601562 C 158.769531 75.4375 179.304688 93.570312 199.601562 112 C 208.066406 118.734375 216.867188 125 226 130.800781 C 226.855469 126.210938 225.921875 121.945312 223.199219 118 C 217.089844 111.089844 210.691406 104.425781 204 98 C 183.269531 68.484375 171.136719 35.683594 167.601562 -0.398438 Z M 167.601562 -0.398438 "/>
<path style=" stroke:none;fill-rule:nonzero;fill:rgb(100%,100%,100%);fill-opacity:1;" d="M 169.199219 -0.398438 L 2323.601562 -0.398438 L 2323.601562 2148.398438 C 2308.734375 2128.59375 2292.207031 2110.054688 2274 2092.800781 C 2245.40625 2066.871094 2216.34375 2041.535156 2186.800781 2016.800781 C 2181.007812 2011.542969 2175.808594 2005.808594 2171.199219 1999.601562 C 2169.832031 1996.734375 2168.367188 1993.9375 2166.800781 1991.199219 C 2167.335938 1991.0625 2167.863281 1990.9375 2168.398438 1990.800781 C 2184.335938 1996.769531 2199.808594 2003.832031 2214.800781 2012 C 2221.742188 2015.335938 2228.945312 2018.007812 2236.398438 2020 C 2243.960938 2021.824219 2251.425781 2021.558594 2258.800781 2019.199219 C 2259.929688 2018.902344 2260.726562 2018.238281 2261.199219 2017.199219 C 2252.414062 2003.742188 2241.742188 1991.871094 2229.199219 1981.601562 C 2208.046875 1965.246094 2186.449219 1949.511719 2164.398438 1934.398438 C 2156.34375 1928.511719 2148.609375 1922.238281 2141.199219 1915.601562 C 2155.136719 1914.425781 2169 1912.6875 2182.800781 1910.398438 C 2188.152344 1909.839844 2192.152344 1907.304688 2194.800781 1902.800781 C 2171.894531 1880.816406 2146.824219 1861.753906 2119.601562 1845.601562 C 2051.777344 1806.824219 1984.574219 1767.089844 1918 1726.398438 C 1903.175781 1717.792969 1887.976562 1709.792969 1872.398438 1702.398438 C 1849.105469 1692.886719 1826.703125 1681.6875 1805.199219 1668.800781 C 1796.664062 1662.398438 1788.136719 1656 1779.601562 1649.601562 C 1753.96875 1627.433594 1728.105469 1605.566406 1702 1584 C 1670.222656 1560.488281 1638.222656 1537.289062 1606 1514.398438 C 1597.015625 1508.976562 1587.6875 1504.175781 1578 1500 C 1559.984375 1493.289062 1541.855469 1486.886719 1523.601562 1480.800781 C 1494.785156 1469.328125 1467.046875 1455.726562 1440.398438 1440 C 1371.945312 1399.574219 1310.207031 1350.375 1255.199219 1292.398438 C 1238.367188 1274.238281 1221.839844 1255.839844 1205.601562 1237.199219 C 1196.457031 1225.3125 1190.328125 1211.976562 1187.199219 1197.199219 C 1183.097656 1181.976562 1181.496094 1166.511719 1182.398438 1150.800781 C 1183.40625 1145.648438 1184.734375 1140.585938 1186.398438 1135.601562 C 1193.824219 1118.894531 1201.023438 1102.097656 1208 1085.199219 C 1211.449219 1073.535156 1214.648438 1061.800781 1217.601562 1050 C 1220.222656 1042.625 1223.6875 1035.6875 1228 1029.199219 C 1249.054688 1002.007812 1272.65625 977.070312 1298.800781 954.398438 C 1312.9375 944.535156 1327.0625 934.664062 1341.199219 924.800781 L 1354.398438 911.601562 C 1355.945312 909.574219 1357.015625 907.441406 1357.601562 905.199219 C 1346.566406 895.121094 1333.496094 890.046875 1318.398438 890 C 1303.246094 891.59375 1288.175781 893.863281 1273.199219 896.800781 C 1097.542969 1034.59375 941.144531 1191.527344 804 1367.601562 C 773.6875 1407.695312 744.351562 1448.496094 716 1490 C 666.875 1561.839844 619.140625 1634.640625 572.800781 1708.398438 C 560.664062 1728.40625 548.929688 1748.671875 537.601562 1769.199219 C 536.070312 1771.441406 535.269531 1773.839844 535.199219 1776.398438 C 543.875 1785.472656 554.410156 1788.808594 566.800781 1786.398438 C 572.828125 1803.175781 584.828125 1812.503906 602.800781 1814.398438 C 609.304688 1814.976562 615.703125 1814.703125 622 1813.601562 C 626.421875 1818.585938 630.554688 1823.785156 634.398438 1829.199219 C 637.429688 1832.921875 641.296875 1834.121094 646 1832.800781 C 652.695312 1831.59375 659.359375 1830.257812 666 1828.800781 C 667.867188 1828.265625 669.734375 1828.265625 671.601562 1828.800781 C 675.746094 1834.015625 680.8125 1838.015625 686.800781 1840.800781 C 693.640625 1842.625 700.308594 1842.097656 706.800781 1839.199219 C 713.496094 1835.585938 720.164062 1831.984375 726.800781 1828.398438 C 730.847656 1829.425781 734.183594 1831.558594 736.800781 1834.800781 C 739.242188 1840.351562 742.574219 1845.289062 746.800781 1849.601562 C 752.785156 1850.273438 758.121094 1848.671875 762.800781 1844.800781 C 774.101562 1834.542969 782.234375 1822.144531 787.199219 1807.601562 C 797.757812 1776.574219 806.824219 1745.105469 814.398438 1713.199219 C 824.207031 1678.175781 835.144531 1643.503906 847.199219 1609.199219 C 850.585938 1601.105469 854.183594 1593.105469 858 1585.199219 C 865.585938 1584.039062 871.847656 1586.441406 876.800781 1592.398438 C 880.191406 1599.847656 884.855469 1606.382812 890.800781 1612 C 896.609375 1615.105469 902.070312 1618.703125 907.199219 1622.800781 C 907.886719 1624.070312 908.425781 1625.398438 908.800781 1626.800781 C 909.472656 1632.433594 910.273438 1638.03125 911.199219 1643.601562 C 918.152344 1647.351562 924.6875 1651.753906 930.800781 1656.800781 C 932.726562 1658.167969 934.863281 1658.832031 937.199219 1658.800781 C 939.175781 1671.496094 942.640625 1683.761719 947.601562 1695.601562 C 957.984375 1697.335938 965.847656 1702.664062 971.199219 1711.601562 C 975.007812 1720.632812 979.28125 1729.433594 984 1738 C 985.761719 1740.03125 987.761719 1741.769531 990 1743.199219 C 996.273438 1746.175781 1002.671875 1748.847656 1009.199219 1751.199219 C 1014.246094 1753.65625 1018.648438 1756.992188 1022.398438 1761.199219 C 1027.207031 1769.734375 1033.207031 1777.335938 1040.398438 1784 C 1045.28125 1787.097656 1050.609375 1788.824219 1056.398438 1789.199219 C 1065.230469 1812.566406 1081.632812 1827.769531 1105.601562 1834.800781 C 1105.855469 1842.902344 1109.183594 1849.441406 1115.601562 1854.398438 C 1126.039062 1860.28125 1136.976562 1865.078125 1148.398438 1868.800781 C 1152 1870.734375 1155.464844 1872.863281 1158.800781 1875.199219 C 1163.128906 1881.585938 1166.726562 1888.382812 1169.601562 1895.601562 C 1175.007812 1902.511719 1182.070312 1906.910156 1190.800781 1908.800781 C 1197.800781 1910.152344 1204.734375 1911.753906 1211.601562 1913.601562 C 1214.046875 1924.3125 1219.921875 1932.574219 1229.199219 1938.398438 C 1241.183594 1945.105469 1253.984375 1949.503906 1267.601562 1951.601562 C 1271.464844 1962 1278.128906 1970.128906 1287.601562 1976 C 1299.625 1983.34375 1312.695312 1987.480469 1326.800781 1988.398438 C 1326.128906 1995.328125 1325.726562 2002.265625 1325.601562 2009.199219 C 1326.375 2010.910156 1327.574219 2012.246094 1329.199219 2013.199219 C 1332.304688 2012.449219 1335.238281 2011.246094 1338 2009.601562 C 1342.808594 2004.726562 1348.542969 2001.664062 1355.199219 2000.398438 C 1356.398438 2000.535156 1357.601562 2000.664062 1358.800781 2000.800781 C 1359.542969 2001.113281 1360.070312 2001.640625 1360.398438 2002.398438 C 1356.078125 2008.855469 1351.152344 2014.855469 1345.601562 2020.398438 C 1343.375 2023.390625 1341.902344 2026.71875 1341.199219 2030.398438 C 1341.152344 2031.769531 1341.6875 2032.832031 1342.800781 2033.601562 C 1350.128906 2037.664062 1357.328125 2041.929688 1364.398438 2046.398438 C 1384.871094 2045.230469 1402.472656 2037.496094 1417.199219 2023.199219 C 1421.34375 2018.390625 1425.609375 2013.726562 1430 2009.199219 C 1431.472656 2033.183594 1442.9375 2050.382812 1464.398438 2060.800781 C 1476.496094 2065.367188 1487.96875 2064.167969 1498.800781 2057.199219 C 1509.785156 2074.199219 1522.585938 2089.800781 1537.199219 2104 C 1547.761719 2113.480469 1560.160156 2118.679688 1574.398438 2119.601562 C 1577.480469 2118.679688 1580.542969 2118.679688 1583.601562 2119.601562 C 1594.761719 2143.425781 1612.359375 2160.625 1636.398438 2171.199219 C 1651.574219 2175.078125 1663.3125 2170.40625 1671.601562 2157.199219 C 1684.550781 2172.433594 1699.753906 2184.832031 1717.199219 2194.398438 C 1725.703125 2199.03125 1734.777344 2200.902344 1744.398438 2200 C 1745.734375 2199.199219 1747.0625 2198.398438 1748.398438 2197.601562 C 1751.863281 2193.601562 1755.335938 2189.601562 1758.800781 2185.601562 C 1760.679688 2183.703125 1762.816406 2183.304688 1765.199219 2184.398438 C 1777.144531 2209.015625 1793.945312 2229.679688 1815.601562 2246.398438 C 1827.59375 2255.105469 1840.921875 2260.175781 1855.601562 2261.601562 C 1861.183594 2255.496094 1864.121094 2248.296875 1864.398438 2240 C 1863.433594 2231.015625 1862.097656 2222.078125 1860.398438 2213.199219 C 1860.542969 2210.496094 1860.945312 2207.824219 1861.601562 2205.199219 C 1862.015625 2203 1862.945312 2201.136719 1864.398438 2199.601562 C 1871.878906 2206.414062 1878.945312 2213.617188 1885.601562 2221.199219 C 1897.488281 2236.425781 1909.753906 2251.359375 1922.398438 2266 C 1933.113281 2278.328125 1945.246094 2288.855469 1958.800781 2297.601562 C 1971.585938 2305.640625 1985.449219 2308.976562 2000.398438 2307.601562 C 2001.390625 2296.816406 2000.464844 2286.144531 1997.601562 2275.601562 C 1989.976562 2252.449219 1982.503906 2229.246094 1975.199219 2206 C 1973.441406 2198.847656 1972.777344 2191.648438 1973.199219 2184.398438 C 2008.550781 2223.878906 2046.152344 2261.078125 2086 2296 C 2095.535156 2302.640625 2105.9375 2304.640625 2117.199219 2302 C 2114.976562 2287.207031 2110.574219 2273.070312 2104 2259.601562 C 2099.136719 2249.609375 2094.070312 2239.742188 2088.800781 2230 C 2072.433594 2203.945312 2057.503906 2177.007812 2044 2149.199219 C 2043.449219 2147.425781 2042.777344 2145.6875 2042 2144 C 2042.265625 2143.601562 2042.535156 2143.199219 2042.800781 2142.800781 C 2054.472656 2152.464844 2065.535156 2162.863281 2076 2174 C 2094.769531 2195.167969 2114.367188 2215.566406 2134.800781 2235.199219 C 2149.328125 2248.207031 2165.601562 2258.609375 2183.601562 2266.398438 C 2192.304688 2269.464844 2201.105469 2269.863281 2210 2267.601562 C 2210.902344 2266.34375 2211.039062 2265.007812 2210.398438 2263.601562 C 2204.535156 2247.871094 2196.800781 2233.199219 2187.199219 2219.601562 C 2171.511719 2198.632812 2155.246094 2178.097656 2138.398438 2158 C 2131.519531 2149.3125 2125.65625 2139.984375 2120.800781 2130 C 2119.257812 2127.152344 2118.855469 2124.214844 2119.601562 2121.199219 C 2142.351562 2139.015625 2164.753906 2157.28125 2186.800781 2176 C 2201.457031 2187.710938 2217.191406 2197.839844 2234 2206.398438 C 2245.144531 2211.855469 2256.871094 2215.320312 2269.199219 2216.800781 C 2274.9375 2217.566406 2280.535156 2217.296875 2286 2216 C 2279.777344 2201.808594 2271.648438 2188.878906 2261.601562 2177.199219 C 2254.535156 2169.601562 2247.464844 2162 2240.398438 2154.398438 C 2222.6875 2138.023438 2205.222656 2121.359375 2188 2104.398438 C 2178.96875 2094.855469 2170.703125 2084.71875 2163.199219 2074 C 2162.816406 2073.238281 2162.679688 2072.441406 2162.800781 2071.601562 C 2165.550781 2072.839844 2168.214844 2074.3125 2170.800781 2076 C 2196.625 2096.113281 2223.289062 2115.046875 2250.800781 2132.800781 C 2264.984375 2141.351562 2280.183594 2147.214844 2296.398438 2150.398438 C 2305.542969 2151.167969 2314.609375 2150.769531 2323.601562 2149.199219 L 2323.601562 2313.199219 L -0.398438 2313.199219 L -0.398438 333.199219 C 2.019531 340.714844 5.355469 347.914062 9.601562 354.800781 C 21.996094 369.855469 36.261719 382.785156 52.398438 393.601562 C 67.203125 403.269531 81.871094 413.136719 96.398438 423.199219 C 92.667969 423.734375 88.933594 423.734375 85.199219 423.199219 C 74.183594 421.359375 63.117188 419.894531 52 418.800781 C 47.816406 419.167969 43.683594 419.835938 39.601562 420.800781 C 29.820312 425.3125 25.953125 432.914062 28 443.601562 C 30 451.0625 33.464844 457.730469 38.398438 463.601562 C 53.601562 480.785156 72.136719 493.054688 94 500.398438 C 90.785156 504.28125 87.1875 507.746094 83.199219 510.800781 C 80.6875 514.089844 78.6875 517.691406 77.199219 521.601562 C 80.308594 551.753906 95.242188 573.753906 122 587.601562 C 119.066406 589.601562 116.132812 591.601562 113.199219 593.601562 C 104.859375 601.875 98.195312 611.339844 93.199219 622 C 99.1875 637.582031 108.253906 651.046875 120.398438 662.398438 C 127.824219 668.507812 136.355469 671.976562 146 672.800781 C 138.191406 687.054688 138.59375 701.054688 147.199219 714.800781 C 156.105469 725.460938 167.171875 733.058594 180.398438 737.601562 C 186.328125 746.390625 190.859375 755.855469 194 766 C 192.765625 769.804688 191.296875 773.539062 189.601562 777.199219 C 188.046875 783.0625 188.046875 788.929688 189.601562 794.800781 C 195.789062 808.695312 206.589844 816.03125 222 816.800781 C 219.550781 825.929688 217.285156 835.128906 215.199219 844.398438 C 213.597656 851.863281 213.332031 859.328125 214.398438 866.800781 C 219.199219 871.0625 224 875.335938 228.800781 879.601562 C 231.984375 883.039062 233.050781 887.039062 232 891.601562 C 223.082031 904.710938 219.882812 919.113281 222.398438 934.800781 C 226.644531 950.71875 236.375 955.921875 251.601562 950.398438 C 257.921875 944.742188 264.589844 939.542969 271.601562 934.800781 C 271.609375 943.824219 271.742188 952.886719 272 962 C 274.402344 981.601562 285.203125 993.328125 304.398438 997.199219 C 301.476562 1020.96875 310.808594 1037.769531 332.398438 1047.601562 C 333.414062 1053.503906 334.613281 1059.367188 336 1065.199219 C 342.140625 1082.335938 354.273438 1090.601562 372.398438 1090 C 372.179688 1095.382812 372.582031 1100.71875 373.601562 1106 C 378.699219 1123.542969 390.300781 1131.671875 408.398438 1130.398438 C 408.902344 1131 409.300781 1131.664062 409.601562 1132.398438 C 412 1141.457031 414.398438 1150.519531 416.800781 1159.601562 C 419.40625 1165.007812 423.269531 1169.273438 428.398438 1172.398438 C 428.121094 1182.273438 428.523438 1192.136719 429.601562 1202 C 430.523438 1209.824219 432.65625 1217.289062 436 1224.398438 C 440.65625 1233.457031 447.988281 1237.59375 458 1236.800781 C 463.332031 1233.863281 468.667969 1230.9375 474 1228 C 476.402344 1226.953125 478.800781 1226.816406 481.199219 1227.601562 C 489.292969 1244.847656 502.894531 1252.847656 522 1251.601562 C 528.132812 1260.664062 533.867188 1270 539.199219 1279.601562 C 539.75 1280.289062 540.417969 1280.816406 541.199219 1281.199219 C 552.148438 1279.144531 560.546875 1282.871094 566.398438 1292.398438 C 570.933594 1300.9375 576.933594 1308.273438 584.398438 1314.398438 C 587.945312 1316.214844 591.675781 1316.753906 595.601562 1316 C 600.507812 1314.71875 605.308594 1313.121094 610 1311.199219 C 619.664062 1309.433594 627 1312.769531 632 1321.199219 C 635.636719 1330.574219 638.570312 1340.175781 640.800781 1350 C 643.351562 1356.175781 647.085938 1361.503906 652 1366 C 653.414062 1374.289062 651.148438 1381.359375 645.199219 1387.199219 C 635.859375 1391.136719 626.257812 1394.335938 616.398438 1396.800781 C 605.257812 1402.878906 594.324219 1409.28125 583.601562 1416 C 542.8125 1436.664062 501.210938 1455.59375 458.800781 1472.800781 C 449.902344 1476.847656 441.101562 1481.113281 432.398438 1485.601562 C 413.273438 1495.992188 406.207031 1511.863281 411.199219 1533.199219 C 417.734375 1537.0625 424.265625 1540.9375 430.800781 1544.800781 C 432.667969 1546.664062 434.535156 1548.535156 436.398438 1550.398438 C 428.855469 1565.847656 430.320312 1580.382812 440.800781 1594 C 446.433594 1599.496094 451.898438 1605.097656 457.199219 1610.800781 C 442.269531 1637.871094 448.40625 1658.535156 475.601562 1672.800781 C 476.5625 1673.519531 477.226562 1674.457031 477.601562 1675.601562 C 477.601562 1684.136719 477.199219 1692.671875 476.398438 1701.199219 C 475.359375 1709.953125 478.027344 1717.289062 484.398438 1723.199219 C 495.609375 1728.808594 504.941406 1736.679688 512.398438 1746.800781 C 532.859375 1710.398438 554.328125 1674.671875 576.800781 1639.601562 C 620.601562 1573.59375 664.601562 1507.726562 708.800781 1442 C 753.480469 1378.527344 800.679688 1316.929688 850.398438 1257.199219 C 965.542969 1122.320312 1092.078125 999.519531 1230 888.800781 C 1228.238281 887.503906 1226.238281 886.832031 1224 886.800781 C 1207.128906 889.3125 1190.992188 894.246094 1175.601562 901.601562 C 1151.878906 913.457031 1128.414062 925.726562 1105.199219 938.398438 C 1093.34375 944.039062 1081.078125 948.574219 1068.398438 952 C 1065.496094 955.703125 1062.296875 959.175781 1058.800781 962.398438 C 1052.863281 966.070312 1047.527344 970.472656 1042.800781 975.601562 C 1026.734375 975.054688 1010.734375 973.328125 994.800781 970.398438 C 974.335938 967.351562 954.871094 961.214844 936.398438 952 C 914.777344 939.726562 895.710938 924.128906 879.199219 905.199219 C 863.464844 887.0625 847.734375 868.9375 832 850.800781 C 800.238281 812.097656 772.242188 770.757812 748 726.800781 C 736.386719 705.707031 726.519531 683.84375 718.398438 661.199219 C 712.203125 639.609375 705.269531 618.277344 697.601562 597.199219 C 687.496094 576.984375 675.496094 558.050781 661.601562 540.398438 C 641.304688 513.152344 620.238281 486.484375 598.398438 460.398438 C 585.941406 444.199219 574.742188 427.132812 564.800781 409.199219 C 558.363281 393.894531 551.164062 378.960938 543.199219 364.398438 C 526.53125 338 510.265625 311.332031 494.398438 284.398438 C 466.105469 237.933594 435.4375 193.132812 402.398438 150 C 374.03125 114.027344 342.699219 80.695312 308.398438 50 C 307.5 51.496094 306.835938 53.09375 306.398438 54.800781 C 304.273438 70.566406 306.40625 85.769531 312.800781 100.398438 C 319.621094 115.503906 325.886719 130.839844 331.601562 146.398438 C 331.320312 147.40625 330.785156 147.671875 330 147.199219 C 320.027344 138.5625 310.292969 129.628906 300.800781 120.398438 C 283.464844 101.464844 266.132812 82.535156 248.800781 63.601562 C 225.5 37.929688 198.96875 16.597656 169.199219 -0.398438 Z M 169.199219 -0.398438 "/>
<path style=" stroke:none;fill-rule:nonzero;fill:rgb(24%,24%,24%);fill-opacity:1;" d="M 2323.601562 2148.398438 L 2323.601562 2149.199219 C 2314.609375 2150.769531 2305.542969 2151.167969 2296.398438 2150.398438 C 2280.183594 2147.214844 2264.984375 2141.351562 2250.800781 2132.800781 C 2223.289062 2115.046875 2196.625 2096.113281 2170.800781 2076 C 2168.214844 2074.3125 2165.550781 2072.839844 2162.800781 2071.601562 C 2162.679688 2072.441406 2162.816406 2073.238281 2163.199219 2074 C 2170.703125 2084.71875 2178.96875 2094.855469 2188 2104.398438 C 2205.222656 2121.359375 2222.6875 2138.023438 2240.398438 2154.398438 C 2247.464844 2162 2254.535156 2169.601562 2261.601562 2177.199219 C 2271.648438 2188.878906 2279.777344 2201.808594 2286 2216 C 2280.535156 2217.296875 2274.9375 2217.566406 2269.199219 2216.800781 C 2256.871094 2215.320312 2245.144531 2211.855469 2234 2206.398438 C 2217.191406 2197.839844 2201.457031 2187.710938 2186.800781 2176 C 2164.753906 2157.28125 2142.351562 2139.015625 2119.601562 2121.199219 C 2118.855469 2124.214844 2119.257812 2127.152344 2120.800781 2130 C 2125.65625 2139.984375 2131.519531 2149.3125 2138.398438 2158 C 2155.246094 2178.097656 2171.511719 2198.632812 2187.199219 2219.601562 C 2196.800781 2233.199219 2204.535156 2247.871094 2210.398438 2263.601562 C 2211.039062 2265.007812 2210.902344 2266.34375 2210 2267.601562 C 2201.105469 2269.863281 2192.304688 2269.464844 2183.601562 2266.398438 C 2165.601562 2258.609375 2149.328125 2248.207031 2134.800781 2235.199219 C 2114.367188 2215.566406 2094.769531 2195.167969 2076 2174 C 2065.535156 2162.863281 2054.472656 2152.464844 2042.800781 2142.800781 C 2042.535156 2143.199219 2042.265625 2143.601562 2042 2144 C 2042.777344 2145.6875 2043.449219 2147.425781 2044 2149.199219 C 2057.503906 2177.007812 2072.433594 2203.945312 2088.800781 2230 C 2094.070312 2239.742188 2099.136719 2249.609375 2104 2259.601562 C 2110.574219 2273.070312 2114.976562 2287.207031 2117.199219 2302 C 2105.9375 2304.640625 2095.535156 2302.640625 2086 2296 C 2046.152344 2261.078125 2008.550781 2223.878906 1973.199219 2184.398438 C 1972.777344 2191.648438 1973.441406 2198.847656 1975.199219 2206 C 1982.503906 2229.246094 1989.976562 2252.449219 1997.601562 2275.601562 C 2000.464844 2286.144531 2001.390625 2296.816406 2000.398438 2307.601562 C 1985.449219 2308.976562 1971.585938 2305.640625 1958.800781 2297.601562 C 1945.246094 2288.855469 1933.113281 2278.328125 1922.398438 2266 C 1909.753906 2251.359375 1897.488281 2236.425781 1885.601562 2221.199219 C 1878.945312 2213.617188 1871.878906 2206.414062 1864.398438 2199.601562 C 1862.945312 2201.136719 1862.015625 2203 1861.601562 2205.199219 C 1860.945312 2207.824219 1860.542969 2210.496094 1860.398438 2213.199219 C 1862.097656 2222.078125 1863.433594 2231.015625 1864.398438 2240 C 1864.121094 2248.296875 1861.183594 2255.496094 1855.601562 2261.601562 C 1840.921875 2260.175781 1827.59375 2255.105469 1815.601562 2246.398438 C 1793.945312 2229.679688 1777.144531 2209.015625 1765.199219 2184.398438 C 1762.816406 2183.304688 1760.679688 2183.703125 1758.800781 2185.601562 C 1755.335938 2189.601562 1751.863281 2193.601562 1748.398438 2197.601562 C 1747.0625 2198.398438 1745.734375 2199.199219 1744.398438 2200 C 1734.777344 2200.902344 1725.703125 2199.03125 1717.199219 2194.398438 C 1699.753906 2184.832031 1684.550781 2172.433594 1671.601562 2157.199219 C 1663.3125 2170.40625 1651.574219 2175.078125 1636.398438 2171.199219 C 1612.359375 2160.625 1594.761719 2143.425781 1583.601562 2119.601562 C 1580.542969 2118.679688 1577.480469 2118.679688 1574.398438 2119.601562 C 1560.160156 2118.679688 1547.761719 2113.480469 1537.199219 2104 C 1522.585938 2089.800781 1509.785156 2074.199219 1498.800781 2057.199219 C 1487.96875 2064.167969 1476.496094 2065.367188 1464.398438 2060.800781 C 1442.9375 2050.382812 1431.472656 2033.183594 1430 2009.199219 C 1425.609375 2013.726562 1421.34375 2018.390625 1417.199219 2023.199219 C 1402.472656 2037.496094 1384.871094 2045.230469 1364.398438 2046.398438 C 1357.328125 2041.929688 1350.128906 2037.664062 1342.800781 2033.601562 C 1341.6875 2032.832031 1341.152344 2031.769531 1341.199219 2030.398438 C 1341.902344 2026.71875 1343.375 2023.390625 1345.601562 2020.398438 C 1351.152344 2014.855469 1356.078125 2008.855469 1360.398438 2002.398438 C 1360.070312 2001.640625 1359.542969 2001.113281 1358.800781 2000.800781 C 1357.601562 2000.664062 1356.398438 2000.535156 1355.199219 2000.398438 C 1348.542969 2001.664062 1342.808594 2004.726562 1338 2009.601562 C 1335.238281 2011.246094 1332.304688 2012.449219 1329.199219 2013.199219 C 1327.574219 2012.246094 1326.375 2010.910156 1325.601562 2009.199219 C 1325.726562 2002.265625 1326.128906 1995.328125 1326.800781 1988.398438 C 1312.695312 1987.480469 1299.625 1983.34375 1287.601562 1976 C 1278.128906 1970.128906 1271.464844 1962 1267.601562 1951.601562 C 1253.984375 1949.503906 1241.183594 1945.105469 1229.199219 1938.398438 C 1219.921875 1932.574219 1214.046875 1924.3125 1211.601562 1913.601562 C 1204.734375 1911.753906 1197.800781 1910.152344 1190.800781 1908.800781 C 1182.070312 1906.910156 1175.007812 1902.511719 1169.601562 1895.601562 C 1166.726562 1888.382812 1163.128906 1881.585938 1158.800781 1875.199219 C 1155.464844 1872.863281 1152 1870.734375 1148.398438 1868.800781 C 1136.976562 1865.078125 1126.039062 1860.28125 1115.601562 1854.398438 C 1109.183594 1849.441406 1105.855469 1842.902344 1105.601562 1834.800781 C 1081.632812 1827.769531 1065.230469 1812.566406 1056.398438 1789.199219 C 1050.609375 1788.824219 1045.28125 1787.097656 1040.398438 1784 C 1033.207031 1777.335938 1027.207031 1769.734375 1022.398438 1761.199219 C 1018.648438 1756.992188 1014.246094 1753.65625 1009.199219 1751.199219 C 1002.671875 1748.847656 996.273438 1746.175781 990 1743.199219 C 987.761719 1741.769531 985.761719 1740.03125 984 1738 C 979.28125 1729.433594 975.007812 1720.632812 971.199219 1711.601562 C 965.847656 1702.664062 957.984375 1697.335938 947.601562 1695.601562 C 942.640625 1683.761719 939.175781 1671.496094 937.199219 1658.800781 C 934.863281 1658.832031 932.726562 1658.167969 930.800781 1656.800781 C 924.6875 1651.753906 918.152344 1647.351562 911.199219 1643.601562 C 910.273438 1638.03125 909.472656 1632.433594 908.800781 1626.800781 C 908.425781 1625.398438 907.886719 1624.070312 907.199219 1622.800781 C 902.070312 1618.703125 896.609375 1615.105469 890.800781 1612 C 884.855469 1606.382812 880.191406 1599.847656 876.800781 1592.398438 C 871.847656 1586.441406 865.585938 1584.039062 858 1585.199219 C 854.183594 1593.105469 850.585938 1601.105469 847.199219 1609.199219 C 835.144531 1643.503906 824.207031 1678.175781 814.398438 1713.199219 C 806.824219 1745.105469 797.757812 1776.574219 787.199219 1807.601562 C 782.234375 1822.144531 774.101562 1834.542969 762.800781 1844.800781 C 758.121094 1848.671875 752.785156 1850.273438 746.800781 1849.601562 C 742.574219 1845.289062 739.242188 1840.351562 736.800781 1834.800781 C 734.183594 1831.558594 730.847656 1829.425781 726.800781 1828.398438 C 720.164062 1831.984375 713.496094 1835.585938 706.800781 1839.199219 C 700.308594 1842.097656 693.640625 1842.625 686.800781 1840.800781 C 680.8125 1838.015625 675.746094 1834.015625 671.601562 1828.800781 C 669.734375 1828.265625 667.867188 1828.265625 666 1828.800781 C 659.359375 1830.257812 652.695312 1831.59375 646 1832.800781 C 641.296875 1834.121094 637.429688 1832.921875 634.398438 1829.199219 C 630.554688 1823.785156 626.421875 1818.585938 622 1813.601562 C 615.703125 1814.703125 609.304688 1814.976562 602.800781 1814.398438 C 584.828125 1812.503906 572.828125 1803.175781 566.800781 1786.398438 C 554.410156 1788.808594 543.875 1785.472656 535.199219 1776.398438 C 535.269531 1773.839844 536.070312 1771.441406 537.601562 1769.199219 C 548.929688 1748.671875 560.664062 1728.40625 572.800781 1708.398438 C 619.140625 1634.640625 666.875 1561.839844 716 1490 C 744.351562 1448.496094 773.6875 1407.695312 804 1367.601562 C 941.144531 1191.527344 1097.542969 1034.59375 1273.199219 896.800781 C 1288.175781 893.863281 1303.246094 891.59375 1318.398438 890 C 1333.496094 890.046875 1346.566406 895.121094 1357.601562 905.199219 C 1357.015625 907.441406 1355.945312 909.574219 1354.398438 911.601562 L 1341.199219 924.800781 C 1327.0625 934.664062 1312.9375 944.535156 1298.800781 954.398438 C 1272.65625 977.070312 1249.054688 1002.007812 1228 1029.199219 C 1223.6875 1035.6875 1220.222656 1042.625 1217.601562 1050 C 1214.648438 1061.800781 1211.449219 1073.535156 1208 1085.199219 C 1201.023438 1102.097656 1193.824219 1118.894531 1186.398438 1135.601562 C 1184.734375 1140.585938 1183.40625 1145.648438 1182.398438 1150.800781 C 1181.496094 1166.511719 1183.097656 1181.976562 1187.199219 1197.199219 C 1190.328125 1211.976562 1196.457031 1225.3125 1205.601562 1237.199219 C 1221.839844 1255.839844 1238.367188 1274.238281 1255.199219 1292.398438 C 1310.207031 1350.375 1371.945312 1399.574219 1440.398438 1440 C 1467.046875 1455.726562 1494.785156 1469.328125 1523.601562 1480.800781 C 1541.855469 1486.886719 1559.984375 1493.289062 1578 1500 C 1587.6875 1504.175781 1597.015625 1508.976562 1606 1514.398438 C 1638.222656 1537.289062 1670.222656 1560.488281 1702 1584 C 1728.105469 1605.566406 1753.96875 1627.433594 1779.601562 1649.601562 C 1788.136719 1656 1796.664062 1662.398438 1805.199219 1668.800781 C 1826.703125 1681.6875 1849.105469 1692.886719 1872.398438 1702.398438 C 1887.976562 1709.792969 1903.175781 1717.792969 1918 1726.398438 C 1984.574219 1767.089844 2051.777344 1806.824219 2119.601562 1845.601562 C 2146.824219 1861.753906 2171.894531 1880.816406 2194.800781 1902.800781 C 2192.152344 1907.304688 2188.152344 1909.839844 2182.800781 1910.398438 C 2169 1912.6875 2155.136719 1914.425781 2141.199219 1915.601562 C 2148.609375 1922.238281 2156.34375 1928.511719 2164.398438 1934.398438 C 2186.449219 1949.511719 2208.046875 1965.246094 2229.199219 1981.601562 C 2241.742188 1991.871094 2252.414062 2003.742188 2261.199219 2017.199219 C 2260.726562 2018.238281 2259.929688 2018.902344 2258.800781 2019.199219 C 2251.425781 2021.558594 2243.960938 2021.824219 2236.398438 2020 C 2228.945312 2018.007812 2221.742188 2015.335938 2214.800781 2012 C 2199.808594 2003.832031 2184.335938 1996.769531 2168.398438 1990.800781 C 2167.863281 1990.9375 2167.335938 1991.0625 2166.800781 1991.199219 C 2168.367188 1993.9375 2169.832031 1996.734375 2171.199219 1999.601562 C 2175.808594 2005.808594 2181.007812 2011.542969 2186.800781 2016.800781 C 2216.34375 2041.535156 2245.40625 2066.871094 2274 2092.800781 C 2292.207031 2110.054688 2308.734375 2128.59375 2323.601562 2148.398438 Z M 2323.601562 2148.398438 "/>
</g>
</svg>
